Coordinates
version=1
nRows=7
nColumns=69
inDegrees=yes

Units are S.I. units (second, meters, Newtons, ...)
If the header above contains a line with 'inDegrees', this indicates whether rotational values are in degrees (yes) or radians (no).

endheader
time	pelvis_tilt	pelvis_list	pelvis_rotation	pelvis_tx	pelvis_ty	pelvis_tz	hip_flexion_r	hip_adduction_r	hip_rotation_r	knee_angle_r	knee_angle_r_beta	ankle_angle_r	subtalar_angle_r	mtp_angle_r	hip_flexion_l	hip_adduction_l	hip_rotation_l	knee_angle_l	knee_angle_l_beta	ankle_angle_l	subtalar_angle_l	mtp_angle_l	L5_S1_Flex_Ext	L5_S1_Lat_Bending	L5_S1_axial_rotation	L4_L5_Flex_Ext	L4_L5_Lat_Bending	L4_L5_axial_rotation	L3_L4_Flex_Ext	L3_L4_Lat_Bending	L3_L4_axial_rotation	L2_L3_Flex_Ext	L2_L3_Lat_Bending	L2_L3_axial_rotation	L1_L2_Flex_Ext	L1_L2_Lat_Bending	L1_L2_axial_rotation	L1_T12_Flex_Ext	L1_T12_Lat_Bending	L1_T12_axial_rotation	Abs_r3	Abs_r2	Abs_r1	Abs_t1	Abs_t2	neck_flexion	neck_bending	neck_rotation	sh_tx_r	sh_ty_r	sh_tz_r	sh_plane_elev_r	sh_elev_r	sh_axial_rot_r	elbow_flex_r	pro_sup_r	wrist_flex_r	wrist_dev_r	sh_tx_l	sh_ty_l	sh_tz_l	sh_plane_elev_l	sh_elev_l	sh_axial_rot_l	elbow_flex_l	pro_sup_l	wrist_flex_l	wrist_dev_l
      0.85000000	    -35.39914160	      9.22592788	    -81.26083928	     -0.12201803	      0.92117788	     -0.98020515	     37.84769524	    -19.15453920	    -14.14535061	     32.51029375	      0.56741167	      1.05180009	     12.55157338	      0.00000000	     44.80317068	    -29.15467309	     33.52159781	     54.61232497	      0.95316488	     23.40289750	     -9.96077632	      0.00000000	     -0.09517375	     -1.32966640	      0.21561099	     -0.17674718	     -1.76845631	      0.22908668	     -0.15636096	     -3.23295088	      0.22908668	     -0.10877408	     -3.23295088	      0.18865962	     -0.08837835	     -2.71145572	      0.17518393	     -0.05438228	     -2.05965325	      0.16170824	     -0.67981660	    -15.04145224	      1.19916364	      0.00000000	      0.00000000	      0.00000000	      0.00000000	      0.00000000	      0.03423144	      0.06456971	     -0.00613085	    -28.04664977	     46.68907997	    -42.11164058	    127.09490794	     89.99559364	      0.00000000	      0.00000000	      0.00559259	      0.01933842	     -0.00570172	      3.53914895	     55.95437734	     -3.38352414	     40.98235500	     89.99559364	      0.00000000	      0.00000000
      0.86666670	    -35.53128554	      9.28204951	    -79.76000195	     -0.11934263	      0.92327929	     -0.97223567	     37.23056192	    -18.65065696	    -15.28087972	     31.81010984	      0.55519115	      0.39176734	     12.68764048	      0.00000000	     44.21789235	    -28.67393028	     34.41074290	     53.09581499	      0.92669679	     23.61921976	     -9.57075111	      0.00000000	     -0.09236967	     -1.31829870	      0.19899765	     -0.17153971	     -1.75333727	      0.21143500	     -0.15175413	     -3.20531145	      0.21143500	     -0.10556929	     -3.20531145	      0.17412294	     -0.08577447	     -2.68827470	      0.16168559	     -0.05278003	     -2.04204468	      0.14924824	     -0.65978729	    -14.91285852	      1.10676523	      0.00000000	      0.00000000	      0.00000000	      0.00000000	      0.00000000	      0.03120645	      0.06376913	     -0.00620410	    -28.03524079	     46.32887097	    -42.06089290	    128.25509033	     89.99559364	      0.00000000	      0.00000000	      0.00855883	      0.01712614	     -0.00559705	      4.06319113	     55.96373598	     -3.37036986	     41.27382997	     89.99559364	      0.00000000	      0.00000000
      0.88333330	    -35.84351227	      9.51121411	    -78.39345733	     -0.11787263	      0.92472246	     -0.96767151	     37.23368363	    -17.71366917	    -16.77102838	     31.43902488	      0.54871450	     -0.64923976	     13.76595385	      0.00000000	     44.30952583	    -28.37497028	     35.50175731	     51.86788878	      0.90526544	     23.67472104	     -9.13056380	      0.00000000	     -0.08848348	     -1.26360309	      0.09949056	     -0.16432268	     -1.68059210	      0.10570872	     -0.14536951	     -3.07232454	      0.10570872	     -0.10112777	     -3.07232454	      0.08705424	     -0.08216576	     -2.57673941	      0.08083608	     -0.05055946	     -1.95732118	      0.07461792	     -0.63202867	    -14.29413082	      0.55333666	      0.00000000	      0.00000000	      0.00000000	      0.00000000	      0.00000000	      0.03115609	      0.06372828	     -0.00588099	    -27.97440429	     46.04730521	    -41.61868957	    130.33908306	     89.99559364	      0.00000000	      0.00000000	      0.00706615	      0.01274693	     -0.00552025	      4.88374441	     56.06149483	     -3.56139458	     41.51613339	     89.99559364	      0.00000000	      0.00000000
      0.90000000	    -35.87174754	      9.79877678	    -77.29395317	     -0.11763379	      0.92628642	     -0.96634140	     37.85943473	    -16.65464273	    -17.95387594	     31.57654015	      0.55111459	     -1.75845854	     15.20707705	      0.00000000	     44.51923980	    -27.96524368	     36.24905360	     50.82998845	      0.88715066	     23.61712946	     -8.46056442	      0.00000000	     -0.08822912	     -1.24955234	     -0.00243118	     -0.16385030	     -1.66190461	     -0.00258313	     -0.14495162	     -3.03816156	     -0.00258313	     -0.10083706	     -3.03816156	     -0.00212728	     -0.08192956	     -2.54808713	     -0.00197533	     -0.05041412	     -1.93555657	     -0.00182338	     -0.63021178	    -14.13518597	     -0.01352149	      0.00000000	      0.00000000	      0.00000000	      0.00000000	      0.00000000	      0.03181528	      0.06301397	     -0.00562915	    -27.36917128	     45.78521448	    -41.04112281	    131.58913644	     89.99559364	      0.00000000	      0.00000000	      0.00672764	      0.01076295	     -0.00551830	      5.76811801	     56.20520545	     -3.98362150	     42.01664168	     89.99559364	      0.00000000	      0.00000000
      0.91666670	    -35.85098231	     10.19561175	    -76.26003805	     -0.11813381	      0.92759784	     -0.96689591	     39.01849719	    -15.38228399	    -18.91093603	     32.11123724	      0.56044682	     -2.19628350	     16.61133450	      0.00000000	     45.06585792	    -27.52703272	     36.84060367	     50.02329369	      0.87307118	     23.40109351	     -7.64159763	      0.00000000	     -0.09048110	     -1.24080711	     -0.13972397	     -0.16803246	     -1.65027346	     -0.14845672	     -0.14865140	     -3.01689841	     -0.14845672	     -0.10341085	     -3.01689841	     -0.12225847	     -0.08402075	     -2.53025386	     -0.11352573	     -0.05170090	     -1.92201022	     -0.10479298	     -0.64629747	    -14.03625822	     -0.77710281	      0.00000000	      0.00000000	      0.00000000	      0.00000000	      0.00000000	      0.03248026	      0.06243632	     -0.00544196	    -26.16351542	     45.52355831	    -40.51112768	    132.54913371	     89.99559364	      0.00000000	      0.00000000	      0.00603306	      0.00976538	     -0.00554886	      6.82114614	     56.50124665	     -4.61317718	     42.82914187	     89.99559364	      0.00000000	      0.00000000
      0.93333330	    -35.75113876	     10.65074970	    -75.22471908	     -0.11851723	      0.92854434	     -0.96762459	     40.43590491	    -13.96947832	    -19.67060196	     32.72903831	      0.57122948	     -1.56713961	     17.48059688	      0.00000000	     45.72089896	    -27.00691834	     37.19951826	     49.35677005	      0.86143815	     23.01436683	     -6.75625832	      0.00000000	     -0.09401740	     -1.23300771	     -0.28428560	     -0.17459971	     -1.63990025	     -0.30205345	     -0.15446118	     -2.99793494	     -0.30205345	     -0.10745248	     -2.99793494	     -0.24874990	     -0.08730455	     -2.51434931	     -0.23098205	     -0.05372154	     -1.90992894	     -0.21321420	     -0.67155685	    -13.94802978	     -1.58111124	      0.00000000	      0.00000000	      0.00000000	      0.00000000	      0.00000000	      0.03293738	      0.06221682	     -0.00536997	    -24.66087508	     45.29902223	    -40.08344598	    133.31681838	     89.99559364	      0.00000000	      0.00000000	      0.00643760	      0.00926356	     -0.00560093	      8.04498650	     56.89885060	     -5.28881706	     43.86232246	     89.99559364	      0.00000000	      0.00000000
      0.95000000	    -35.57412491	     11.09888322	    -74.24220439	     -0.11850583	      0.92929154	     -0.96750013	     41.82192895	    -12.38048450	    -20.42542650	     33.00615850	      0.57606614	     -0.21948802	     17.72743722	      0.00000000	     46.21824719	    -26.47723847	     37.26068996	     48.70942446	      0.85013983	     22.60216091	     -5.91458677	      0.00000000	     -0.09906574	     -1.23208576	     -0.55450942	     -0.18397498	     -1.63867407	     -0.58916626	     -0.16275510	     -2.99569333	     -0.58916626	     -0.11322223	     -2.99569333	     -0.48519574	     -0.09199244	     -2.51246929	     -0.45053890	     -0.05660616	     -1.90850085	     -0.41588206	     -0.70761664	    -13.93760058	     -3.08401504	      0.00000000	      0.00000000	      0.00000000	      0.00000000	      0.00000000	      0.03179208	      0.06232436	     -0.00548405	    -21.26730632	     44.92200800	    -40.23199016	    133.56674175	     89.99559364	      0.00000000	      0.00000000	      0.00343773	      0.01109897	     -0.00553998	      9.10925041	     57.06037814	     -7.31664686	     44.21699205	     89.99559364	      0.00000000	      0.00000000
